# xmcd
#
# Track frame offsets:
#	150
#	5104
#	11674
#	14559
#	22274
#	27140
#	39335
#	44742
#	48652
#	54679
#	60847
#	65772
#
# Disc length: 1080 seconds
#
# Revision: 0
# Processed by: cddbd v1.5.1PL2 Copyright (c) Steve Scherf et al.
# Submitted via: audiograbber 1.83.01
#
DISCID=a604360c
DTITLE=Διάφοροι - Τα παραδοσιακά της Λαμπρής (ΕΠΕΝΔΥΤΗΣ)
DYEAR=2006
DGENRE=Παραδοσιακό
TTITLE0=Γιαννούλης Ματθαίος - Μια κόρη στην ακρογιαλιά
TTITLE1=Σπηλιωτοπούλου Τζίνα - Ορκίζεσαι, μικρό μου
TTITLE2=Σπηλιωτοπούλου Τζίνα - Οταν περνάς γιατί τα μάτια χαμηλώνεις
TTITLE3=Γιαννούλης Ματθαίος - Αιγιώτισσα
TTITLE4=Γιαννούλης Ματθαίος - Η Φρόσω
TTITLE5=Γιαννούλης Ματθαίος - Τα γλυκά σου μάτια
TTITLE6=Σπηλιωτοπούλου Τζίνα - Λεμονάκι
TTITLE7=Γιαννούλης Ματθαίος - Μ' έκαψες γειτόνισσα
TTITLE8=Λαμπράκη Χαρούλα - Κόρη που πας στον ποταμό
TTITLE9=Σπηλιωτοπούλου Τζίνα - Αρμενάκι
TTITLE10=Γιαννούλης Ματθαίος - Μαουκάς (Θα πάρω μια ψαρόβαρκα)
TTITLE11=Γιαννούλης Ματθαίος - Μάτια σαν και τα δικά σου
EXTD=
EXTT0=
EXTT1=
EXTT2=
EXTT3=
EXTT4=
EXTT5=
EXTT6=
EXTT7=
EXTT8=
EXTT9=
EXTT10=
EXTT11=
PLAYORDER=
